<?xml version="1.0" encoding="UTF-8" standalone="no"?>
<svg
   xmlns:dc="http://purl.org/dc/elements/1.1/"
   xmlns:cc="http://creativecommons.org/ns#"
   xmlns:rdf="http://www.w3.org/1999/02/22-rdf-syntax-ns#"
   xmlns:svg="http://www.w3.org/2000/svg"
   xmlns="http://www.w3.org/2000/svg"
   xmlns:sodipodi="http://sodipodi.sourceforge.net/DTD/sodipodi-0.dtd"
   xmlns:inkscape="http://www.inkscape.org/namespaces/inkscape"
   inkscape:export-ydpi="18"
   inkscape:export-xdpi="18"
   inkscape:export-filename="C:\dev\github\choir\choir-practice\docs\logo.png"
   sodipodi:docname="logo.svg"
   inkscape:version="1.0 (4035a4fb49, 2020-05-01)"
   id="svg8"
   version="1.1"
   viewBox="0 0 135.46666 135.46667"
   height="512"
   width="512">
  <defs
     id="defs2" />
  <sodipodi:namedview
     inkscape:window-maximized="0"
     inkscape:window-y="491"
     inkscape:window-x="3065"
     inkscape:window-height="1019"
     inkscape:window-width="1836"
     units="in"
     showgrid="false"
     inkscape:document-rotation="0"
     inkscape:current-layer="layer1"
     inkscape:document-units="px"
     inkscape:cy="285.23272"
     inkscape:cx="249.33661"
     inkscape:zoom="0.98994949"
     inkscape:pageshadow="2"
     inkscape:pageopacity="0.0"
     borderopacity="1.0"
     bordercolor="#666666"
     pagecolor="#ffffff"
     id="base" />
  <metadata
     id="metadata5">
    <rdf:RDF>
      <cc:Work
         rdf:about="">
        <dc:format>image/svg+xml</dc:format>
        <dc:type
           rdf:resource="http://purl.org/dc/dcmitype/StillImage" />
        <dc:title></dc:title>
      </cc:Work>
    </rdf:RDF>
  </metadata>
  <g
     id="layer1"
     inkscape:groupmode="layer"
     inkscape:label="Layer 1">
    <path
       transform="scale(0.26458333)"
       d="M 159.67578 32 A 128 128 0 0 0 32 160 A 128 128 0 0 0 32 160.32422 L 32 352 A 128 128 0 0 0 160 480 L 352 480 A 128 128 0 0 0 480 352 A 128 128 0 0 0 480 351.67578 L 480 160 A 128 128 0 0 0 352 32 L 160 32 A 128 128 0 0 0 159.67578 32 z "
       style="fill:#7aa0ec;fill-opacity:1;stroke:none;stroke-width:0.999995"
       id="path851" />
    <path
       id="path847"
       d="m 26.9614,131.91421 c 0.32972,-2.03182 2.55829,-7.85572 4.95237,-12.94202 2.39409,-5.08629 4.35289,-9.69942 4.35289,-10.2514 0,-1.31566 -9.14648,-1.29065 -13.77804,0.0377 -1.99684,0.57269 -7.87367,1.36155 -13.0596203,1.75304 L 0,111.22329 v -3.77132 -3.77132 l 10.66666,-0.76345 c 5.86667,-0.4199 10.66667,-1.15445 10.66667,-1.63234 0,-1.14323 -5.28369,-2.793726 -18.4,-5.747676 C 0.31476,94.947454 0,94.404904 0,90.480994 v -4.39558 l 5.7202,0.59038 c 3.14612,0.32471 8.06612,1.76831 10.93334,3.20802 2.86722,1.4397 8.09312,3.12275 11.61312,3.74011 3.52,0.61737 7.23596,1.45071 8.25768,1.85189 1.15436,0.45325 2.01671,0.1827 2.27775,-0.7146 0.23105,-0.7942 1.94928,-7.204 3.8183,-14.244 5.15134,-19.403436 7.05704,-24.645013 11.5692,-31.820704 3.41307,-5.42781 4.05196,-7.289268 3.65047,-10.635881 -0.68057,-5.672772 2.28236,-12.683032 7.26203,-17.181863 4.88944,-4.417312 8.689655,-5.635956 12.360085,-3.963596 3.586,1.63389 5.27483,1.512652 7.31242,-0.524941 2.84871,-2.848703 2.85698,-1.044343 0.0129,2.8106 -4.28759,5.811505 -3.65672,7.430222 2.94584,7.558611 5.54357,0.107796 5.56399,0.120408 2.02657,1.251589 -3.46795,1.108969 -3.55224,1.271038 -2.85594,5.491106 2.04183,12.374905 2.42808,21.433052 1.10184,25.839809 -2.09183,6.95063 -8.21707,17.15182 -15.417525,25.67691 l -6.50496,7.70165 4.18034,2.76642 c 4.668545,3.0895 6.093745,3.21368 23.721495,2.06691 13.768345,-0.8957 22.316315,0.46851 34.814845,5.556276 5.36185,2.18265 6.66666,3.17743 6.66666,5.08266 0,1.30288 -0.26491,2.63379 -0.58871,2.95759 -0.3238,0.32379 -3.8038,-0.54786 -7.73333,-1.937 -3.92954,-1.38915 -11.11129,-3.11119 -15.95944,-3.82677 -7.61309,-1.12368 -10.0125,-1.05366 -17.599995,0.51358 -6.93707,1.43288 -12.60756,1.71756 -26.955145,1.35325 l -18.16997,-0.46135 -3.14221,5.52922 c -1.72821,3.04108 -5.13054,9.36924 -7.56073,14.06257 -4.02374,7.77089 -4.7302,8.56422 -7.90687,8.87895 -3.43084,0.33991 -3.47846,0.28471 -2.88886,-3.3486 z"
       style="fill:#000000;stroke-width:1.06667" />
  </g>
</svg>
